<?xml version="1.0" encoding="UTF-8" standalone="no"?><svg xmlns="http://www.w3.org/2000/svg" xmlns:xlink="http://www.w3.org/1999/xlink" contentScriptType="application/ecmascript" contentStyleType="text/css" height="1263px" preserveAspectRatio="none" style="width:1769px;height:1263px;" version="1.1" viewBox="0 0 1769 1263" width="1769px" zoomAndPan="magnify"><defs><filter height="300%" id="fqo7tpniyvbqe" width="300%" x="-1" y="-1"><feGaussianBlur result="blurOut" stdDeviation="2.0"/><feColorMatrix in="blurOut" result="blurOut2" type="matrix" values="0 0 0 0 0 0 0 0 0 0 0 0 0 0 0 0 0 0 .4 0"/><feOffset dx="4.0" dy="4.0" in="blurOut2" result="blurOut3"/><feBlend in="SourceGraphic" in2="blurOut3" mode="normal"/></filter></defs><g><!--cluster merger and timestamp scanor classes--><polygon fill="#DDDDDD" filter="url(#fqo7tpniyvbqe)" points="22,24,294,24,301,47.6094,1747,47.6094,1747,1251,22,1251,22,24" style="stroke: #000000; stroke-width: 1.5;"/><line style="stroke: #000000; stroke-width: 1.5;" x1="22" x2="301" y1="47.6094" y2="47.6094"/><text fill="#000000" font-family="sans-serif" font-size="14" font-weight="bold" lengthAdjust="spacingAndGlyphs" textLength="266" x="26" y="40.5332">merger and timestamp scanor classes</text><!--class TSScanorBase--><rect fill="#FEFECE" filter="url(#fqo7tpniyvbqe)" height="338.5547" id="TSScanorBase" style="stroke: #A80036; stroke-width: 1.5;" width="325" x="426.5" y="403"/><ellipse cx="537.75" cy="419" fill="#ADD1B2" rx="11" ry="11" style="stroke: #A80036; stroke-width: 1.0;"/><path d="M540.4531,424.4375 Q539.5313,425.3594 537.2656,425.3594 Q536,425.3594 535.0781,424.4375 Q533.4219,422.7813 533.4219,419.25 Q533.4219,415.1406 535.2031,413.3438 Q536.1406,412.4219 537.3281,412.4219 Q539.5938,412.4219 540.3281,413.1406 Q541.7188,414.5469 541.6563,416.9375 L539.1875,416.9375 Q539.125,414.8125 538.3906,414.0781 Q538,413.6719 537.3281,413.6719 Q537.3281,413.6719 537.2656,414.1406 Q535.9375,415.4688 535.9375,419.125 Q535.9375,422.3125 537.0781,423.4375 Q537.6094,423.9688 537.6094,423.9688 Q537.8594,423.9688 538.3906,423.4375 Q539.0625,422.7813 539.125,420.3906 L541.7188,420.3906 Q541.5156,423.375 540.4531,424.4375 Z "/><text fill="#000000" font-family="sans-serif" font-size="12" lengthAdjust="spacingAndGlyphs" textLength="83" x="558.25" y="423.9102">TSScanorBase</text><rect fill="#FFFFFF" height="17.0938" style="stroke: #000000; stroke-width: 1.0; stroke-dasharray: 2.0,2.0;" width="9" x="745.5" y="400"/><text fill="#000000" font-family="sans-serif" font-size="12" font-style="italic" lengthAdjust="spacingAndGlyphs" textLength="7" x="746.5" y="413.457">T</text><line style="stroke: #A80036; stroke-width: 1.5;" x1="427.5" x2="750.5" y1="435" y2="435"/><polygon fill="none" points="437.5,441,441.5,445,437.5,449,433.5,445" style="stroke: #B38D22; stroke-width: 1.0;"/><text fill="#000000" font-family="sans-serif" font-size="11" lengthAdjust="spacingAndGlyphs" textLength="74" x="446.5" y="450.4189">TFile *tree_file_</text><polygon fill="none" points="437.5,454.8359,441.5,458.8359,437.5,462.8359,433.5,458.8359" style="stroke: #B38D22; stroke-width: 1.0;"/><text fill="#000000" font-family="sans-serif" font-size="11" lengthAdjust="spacingAndGlyphs" textLength="133" x="446.5" y="464.2549">TTreeReader *tree_reader_</text><polygon fill="none" points="437.5,468.6719,441.5,472.6719,437.5,476.6719,433.5,472.6719" style="stroke: #B38D22; stroke-width: 1.0;"/><text fill="#000000" font-family="sans-serif" font-size="11" lengthAdjust="spacingAndGlyphs" textLength="189" x="446.5" y="478.0908">std::map&lt;ULong64_t,T&gt; ts_entry_map_</text><polygon fill="none" points="437.5,482.5078,441.5,486.5078,437.5,490.5078,433.5,486.5078" style="stroke: #B38D22; stroke-width: 1.0;"/><text fill="#000000" font-family="sans-serif" font-size="11" lengthAdjust="spacingAndGlyphs" textLength="243" x="446.5" y="491.9268">std::map&lt;ULong64_t,ULong64_t&gt; ts_i_entry_map_</text><polygon fill="none" points="437.5,496.3438,441.5,500.3438,437.5,504.3438,433.5,500.3438" style="stroke: #B38D22; stroke-width: 1.0;"/><text fill="#000000" font-family="sans-serif" font-size="11" lengthAdjust="spacingAndGlyphs" textLength="111" x="446.5" y="505.7627">ULong64_t first_entry_</text><polygon fill="none" points="437.5,510.1797,441.5,514.1797,437.5,518.1797,433.5,514.1797" style="stroke: #B38D22; stroke-width: 1.0;"/><text fill="#000000" font-family="sans-serif" font-size="11" lengthAdjust="spacingAndGlyphs" textLength="109" x="446.5" y="519.5986">ULong64_t last_entry_</text><polygon fill="none" points="437.5,524.0156,441.5,528.0156,437.5,532.0156,433.5,528.0156" style="stroke: #B38D22; stroke-width: 1.0;"/><text fill="#000000" font-family="sans-serif" font-size="11" lengthAdjust="spacingAndGlyphs" textLength="299" x="446.5" y="533.4346">std::map&lt;std::string,std::pair&lt;std::string,void*&gt;&gt; branch_map_</text><polygon fill="none" points="437.5,537.8516,441.5,541.8516,437.5,545.8516,433.5,541.8516" style="stroke: #B38D22; stroke-width: 1.0;"/><text fill="#000000" font-family="sans-serif" font-size="11" lengthAdjust="spacingAndGlyphs" textLength="168" x="446.5" y="547.2705">TTreeReaderValue&lt;T&gt; *tree_data_</text><line style="stroke: #A80036; stroke-width: 1.5;" x1="427.5" x2="750.5" y1="553.6875" y2="553.6875"/><ellipse cx="437.5" cy="564.6875" fill="#84BE84" rx="3" ry="3" style="stroke: #038048; stroke-width: 1.0;"/><text fill="#000000" font-family="sans-serif" font-size="11" lengthAdjust="spacingAndGlyphs" textLength="55" x="446.5" y="569.1064">Configure()</text><ellipse cx="437.5" cy="578.5234" fill="#84BE84" rx="3" ry="3" style="stroke: #038048; stroke-width: 1.0;"/><text fill="#000000" font-family="sans-serif" font-size="11" lengthAdjust="spacingAndGlyphs" textLength="59" x="446.5" y="582.9424">SetReader()</text><ellipse cx="437.5" cy="592.3594" fill="#84BE84" rx="3" ry="3" style="stroke: #038048; stroke-width: 1.0;"/><text fill="#000000" font-family="sans-serif" font-size="11" lengthAdjust="spacingAndGlyphs" textLength="33" x="446.5" y="596.7783">Scan()</text><ellipse cx="437.5" cy="606.1953" fill="#84BE84" rx="3" ry="3" style="stroke: #038048; stroke-width: 1.0;"/><text fill="#000000" font-family="sans-serif" font-size="11" lengthAdjust="spacingAndGlyphs" textLength="65" x="446.5" y="610.6143">LoadEntries()</text><ellipse cx="437.5" cy="620.0313" fill="#84BE84" rx="3" ry="3" style="stroke: #038048; stroke-width: 1.0;"/><text fill="#000000" font-family="sans-serif" font-size="11" lengthAdjust="spacingAndGlyphs" textLength="72" x="446.5" y="624.4502">GetIEntryMap()</text><ellipse cx="437.5" cy="633.8672" fill="#84BE84" rx="3" ry="3" style="stroke: #038048; stroke-width: 1.0;"/><text fill="#000000" font-family="sans-serif" font-size="11" lengthAdjust="spacingAndGlyphs" textLength="45" x="446.5" y="638.2861">GetMap()</text><ellipse cx="437.5" cy="647.7031" fill="#84BE84" rx="3" ry="3" style="stroke: #038048; stroke-width: 1.0;"/><text fill="#000000" font-family="sans-serif" font-size="11" lengthAdjust="spacingAndGlyphs" textLength="52" x="446.5" y="652.1221">GetIEntry()</text><ellipse cx="437.5" cy="661.5391" fill="#84BE84" rx="3" ry="3" style="stroke: #038048; stroke-width: 1.0;"/><text fill="#000000" font-family="sans-serif" font-size="11" lengthAdjust="spacingAndGlyphs" textLength="43" x="446.5" y="665.958">Restart()</text><ellipse cx="437.5" cy="675.375" fill="#84BE84" rx="3" ry="3" style="stroke: #038048; stroke-width: 1.0;"/><text fill="#000000" font-family="sans-serif" font-size="11" lengthAdjust="spacingAndGlyphs" textLength="63" x="446.5" y="679.7939">T* GetEntry()</text><ellipse cx="437.5" cy="689.2109" fill="#84BE84" rx="3" ry="3" style="stroke: #038048; stroke-width: 1.0;"/><text fill="#000000" font-family="sans-serif" font-size="11" lengthAdjust="spacingAndGlyphs" textLength="86" x="446.5" y="693.6299">GetCurrentEntry()</text><ellipse cx="437.5" cy="703.0469" fill="#84BE84" rx="3" ry="3" style="stroke: #038048; stroke-width: 1.0;"/><text fill="#000000" font-family="sans-serif" font-size="11" lengthAdjust="spacingAndGlyphs" textLength="47" x="446.5" y="707.4658">GetTree()</text><polygon fill="#FFFF44" points="437.5,711.8828,441.5,715.8828,437.5,719.8828,433.5,715.8828" style="stroke: #B38D22; stroke-width: 1.0;"/><text fill="#000000" font-family="sans-serif" font-size="11" lengthAdjust="spacingAndGlyphs" textLength="38" x="446.5" y="721.3018">GetTS()</text><polygon fill="#FFFF44" points="437.5,725.7188,441.5,729.7188,437.5,733.7188,433.5,729.7188" style="stroke: #B38D22; stroke-width: 1.0;"/><text fill="#000000" font-family="sans-serif" font-size="11" lengthAdjust="spacingAndGlyphs" textLength="47" x="446.5" y="735.1377">IsInGate()</text><path d="M399.5,180 L399.5,222.7031 A0,0 0 0 0 399.5,222.7031 L585,222.7031 L589,402.64 L593,222.7031 L778.5,222.7031 A0,0 0 0 0 778.5,222.7031 L778.5,190 L768.5,180 L399.5,180 A0,0 0 0 0 399.5,180 " fill="#FBFB77" filter="url(#fqo7tpniyvbqe)" style="stroke: #A80036; stroke-width: 1.0;"/><path d="M768.5,180 L768.5,190 L778.5,190 L768.5,180 " fill="#FBFB77" style="stroke: #A80036; stroke-width: 1.0;"/><text fill="#000000" font-family="sans-serif" font-size="13" lengthAdjust="spacingAndGlyphs" textLength="358" x="405.5" y="198.4951">A base class that scans a ROOT tree and generates a map of</text><text fill="#000000" font-family="sans-serif" font-size="13" lengthAdjust="spacingAndGlyphs" textLength="181" x="405.5" y="214.8467">event numbers and timestamps</text><!--class BigRIPSTSScanor--><rect fill="#FEFECE" filter="url(#fqo7tpniyvbqe)" height="75.6719" id="BigRIPSTSScanor" style="stroke: #A80036; stroke-width: 1.5;" width="234" x="38" y="864"/><ellipse cx="53" cy="880" fill="#ADD1B2" rx="11" ry="11" style="stroke: #A80036; stroke-width: 1.0;"/><path d="M55.7031,885.4375 Q54.7813,886.3594 52.5156,886.3594 Q51.25,886.3594 50.3281,885.4375 Q48.6719,883.7813 48.6719,880.25 Q48.6719,876.1406 50.4531,874.3438 Q51.3906,873.4219 52.5781,873.4219 Q54.8438,873.4219 55.5781,874.1406 Q56.9688,875.5469 56.9063,877.9375 L54.4375,877.9375 Q54.375,875.8125 53.6406,875.0781 Q53.25,874.6719 52.5781,874.6719 Q52.5781,874.6719 52.5156,875.1406 Q51.1875,876.4688 51.1875,880.125 Q51.1875,883.3125 52.3281,884.4375 Q52.8594,884.9688 52.8594,884.9688 Q53.1094,884.9688 53.6406,884.4375 Q54.3125,883.7813 54.375,881.3906 L56.9688,881.3906 Q56.7656,884.375 55.7031,885.4375 Z "/><text fill="#000000" font-family="sans-serif" font-size="12" lengthAdjust="spacingAndGlyphs" textLength="100" x="67" y="884.9102">BigRIPSTSScanor</text><rect fill="#FFFFFF" height="17.0938" style="stroke: #000000; stroke-width: 1.0; stroke-dasharray: 2.0,2.0;" width="100" x="175" y="861"/><text fill="#000000" font-family="sans-serif" font-size="12" font-style="italic" lengthAdjust="spacingAndGlyphs" textLength="98" x="176" y="874.457">BigRIPSTreeData</text><line style="stroke: #A80036; stroke-width: 1.5;" x1="39" x2="271" y1="896" y2="896"/><line style="stroke: #A80036; stroke-width: 1.5;" x1="39" x2="271" y1="904" y2="904"/><ellipse cx="49" cy="915" fill="#84BE84" rx="3" ry="3" style="stroke: #038048; stroke-width: 1.0;"/><text fill="#000000" font-family="sans-serif" font-size="11" lengthAdjust="spacingAndGlyphs" textLength="38" x="58" y="919.4189">GetTS()</text><ellipse cx="49" cy="928.8359" fill="#84BE84" rx="3" ry="3" style="stroke: #038048; stroke-width: 1.0;"/><text fill="#000000" font-family="sans-serif" font-size="11" lengthAdjust="spacingAndGlyphs" textLength="47" x="58" y="933.2549">IsInGate()</text><!--class ImplantTSScanor--><rect fill="#FEFECE" filter="url(#fqo7tpniyvbqe)" height="75.6719" id="ImplantTSScanor" style="stroke: #A80036; stroke-width: 1.5;" width="204" x="307" y="864"/><ellipse cx="322" cy="880" fill="#ADD1B2" rx="11" ry="11" style="stroke: #A80036; stroke-width: 1.0;"/><path d="M324.7031,885.4375 Q323.7813,886.3594 321.5156,886.3594 Q320.25,886.3594 319.3281,885.4375 Q317.6719,883.7813 317.6719,880.25 Q317.6719,876.1406 319.4531,874.3438 Q320.3906,873.4219 321.5781,873.4219 Q323.8438,873.4219 324.5781,874.1406 Q325.9688,875.5469 325.9063,877.9375 L323.4375,877.9375 Q323.375,875.8125 322.6406,875.0781 Q322.25,874.6719 321.5781,874.6719 Q321.5781,874.6719 321.5156,875.1406 Q320.1875,876.4688 320.1875,880.125 Q320.1875,883.3125 321.3281,884.4375 Q321.8594,884.9688 321.8594,884.9688 Q322.1094,884.9688 322.6406,884.4375 Q323.3125,883.7813 323.375,881.3906 L325.9688,881.3906 Q325.7656,884.375 324.7031,885.4375 Z "/><text fill="#000000" font-family="sans-serif" font-size="12" lengthAdjust="spacingAndGlyphs" textLength="95" x="336" y="884.9102">ImplantTSScanor</text><rect fill="#FFFFFF" height="17.0938" style="stroke: #000000; stroke-width: 1.0; stroke-dasharray: 2.0,2.0;" width="75" x="439" y="861"/><text fill="#000000" font-family="sans-serif" font-size="12" font-style="italic" lengthAdjust="spacingAndGlyphs" textLength="73" x="440" y="874.457">PixTreeEvent</text><line style="stroke: #A80036; stroke-width: 1.5;" x1="308" x2="510" y1="896" y2="896"/><line style="stroke: #A80036; stroke-width: 1.5;" x1="308" x2="510" y1="904" y2="904"/><ellipse cx="318" cy="915" fill="#84BE84" rx="3" ry="3" style="stroke: #038048; stroke-width: 1.0;"/><text fill="#000000" font-family="sans-serif" font-size="11" lengthAdjust="spacingAndGlyphs" textLength="38" x="327" y="919.4189">GetTS()</text><ellipse cx="318" cy="928.8359" fill="#84BE84" rx="3" ry="3" style="stroke: #038048; stroke-width: 1.0;"/><text fill="#000000" font-family="sans-serif" font-size="11" lengthAdjust="spacingAndGlyphs" textLength="47" x="327" y="933.2549">IsInGate()</text><!--class MergedImplantTSScanor--><rect fill="#FEFECE" filter="url(#fqo7tpniyvbqe)" height="75.6719" id="MergedImplantTSScanor" style="stroke: #A80036; stroke-width: 1.5;" width="447" x="546.5" y="864"/><ellipse cx="561.5" cy="880" fill="#ADD1B2" rx="11" ry="11" style="stroke: #A80036; stroke-width: 1.0;"/><path d="M564.2031,885.4375 Q563.2813,886.3594 561.0156,886.3594 Q559.75,886.3594 558.8281,885.4375 Q557.1719,883.7813 557.1719,880.25 Q557.1719,876.1406 558.9531,874.3438 Q559.8906,873.4219 561.0781,873.4219 Q563.3438,873.4219 564.0781,874.1406 Q565.4688,875.5469 565.4063,877.9375 L562.9375,877.9375 Q562.875,875.8125 562.1406,875.0781 Q561.75,874.6719 561.0781,874.6719 Q561.0781,874.6719 561.0156,875.1406 Q559.6875,876.4688 559.6875,880.125 Q559.6875,883.3125 560.8281,884.4375 Q561.3594,884.9688 561.3594,884.9688 Q561.6094,884.9688 562.1406,884.4375 Q562.8125,883.7813 562.875,881.3906 L565.4688,881.3906 Q565.2656,884.375 564.2031,885.4375 Z "/><text fill="#000000" font-family="sans-serif" font-size="12" lengthAdjust="spacingAndGlyphs" textLength="136" x="575.5" y="884.9102">MergedImplantTSScanor</text><rect fill="#FFFFFF" height="17.0938" style="stroke: #000000; stroke-width: 1.0; stroke-dasharray: 2.0,2.0;" width="277" x="719.5" y="861"/><text fill="#000000" font-family="sans-serif" font-size="12" font-style="italic" lengthAdjust="spacingAndGlyphs" textLength="275" x="720.5" y="874.457">OutputTreeData&lt;PixTreeEvent,BigRIPSTreeData&gt;</text><line style="stroke: #A80036; stroke-width: 1.5;" x1="547.5" x2="992.5" y1="896" y2="896"/><line style="stroke: #A80036; stroke-width: 1.5;" x1="547.5" x2="992.5" y1="904" y2="904"/><ellipse cx="557.5" cy="915" fill="#84BE84" rx="3" ry="3" style="stroke: #038048; stroke-width: 1.0;"/><text fill="#000000" font-family="sans-serif" font-size="11" lengthAdjust="spacingAndGlyphs" textLength="38" x="566.5" y="919.4189">GetTS()</text><ellipse cx="557.5" cy="928.8359" fill="#84BE84" rx="3" ry="3" style="stroke: #038048; stroke-width: 1.0;"/><text fill="#000000" font-family="sans-serif" font-size="11" lengthAdjust="spacingAndGlyphs" textLength="47" x="566.5" y="933.2549">IsInGate()</text><!--class BetaTSScanor--><rect fill="#FEFECE" filter="url(#fqo7tpniyvbqe)" height="75.6719" id="BetaTSScanor" style="stroke: #A80036; stroke-width: 1.5;" width="188" x="1029" y="864"/><ellipse cx="1044" cy="880" fill="#ADD1B2" rx="11" ry="11" style="stroke: #A80036; stroke-width: 1.0;"/><path d="M1046.7031,885.4375 Q1045.7813,886.3594 1043.5156,886.3594 Q1042.25,886.3594 1041.3281,885.4375 Q1039.6719,883.7813 1039.6719,880.25 Q1039.6719,876.1406 1041.4531,874.3438 Q1042.3906,873.4219 1043.5781,873.4219 Q1045.8438,873.4219 1046.5781,874.1406 Q1047.9688,875.5469 1047.9063,877.9375 L1045.4375,877.9375 Q1045.375,875.8125 1044.6406,875.0781 Q1044.25,874.6719 1043.5781,874.6719 Q1043.5781,874.6719 1043.5156,875.1406 Q1042.1875,876.4688 1042.1875,880.125 Q1042.1875,883.3125 1043.3281,884.4375 Q1043.8594,884.9688 1043.8594,884.9688 Q1044.1094,884.9688 1044.6406,884.4375 Q1045.3125,883.7813 1045.375,881.3906 L1047.9688,881.3906 Q1047.7656,884.375 1046.7031,885.4375 Z "/><text fill="#000000" font-family="sans-serif" font-size="12" lengthAdjust="spacingAndGlyphs" textLength="79" x="1058" y="884.9102">BetaTSScanor</text><rect fill="#FFFFFF" height="17.0938" style="stroke: #000000; stroke-width: 1.0; stroke-dasharray: 2.0,2.0;" width="75" x="1145" y="861"/><text fill="#000000" font-family="sans-serif" font-size="12" font-style="italic" lengthAdjust="spacingAndGlyphs" textLength="73" x="1146" y="874.457">PixTreeEvent</text><line style="stroke: #A80036; stroke-width: 1.5;" x1="1030" x2="1216" y1="896" y2="896"/><line style="stroke: #A80036; stroke-width: 1.5;" x1="1030" x2="1216" y1="904" y2="904"/><ellipse cx="1040" cy="915" fill="#84BE84" rx="3" ry="3" style="stroke: #038048; stroke-width: 1.0;"/><text fill="#000000" font-family="sans-serif" font-size="11" lengthAdjust="spacingAndGlyphs" textLength="38" x="1049" y="919.4189">GetTS()</text><ellipse cx="1040" cy="928.8359" fill="#84BE84" rx="3" ry="3" style="stroke: #038048; stroke-width: 1.0;"/><text fill="#000000" font-family="sans-serif" font-size="11" lengthAdjust="spacingAndGlyphs" textLength="47" x="1049" y="933.2549">IsInGate()</text><!--class TreeMerger--><rect fill="#FEFECE" filter="url(#fqo7tpniyvbqe)" height="283.2109" id="TreeMerger" style="stroke: #A80036; stroke-width: 1.5;" width="235" x="1495.5" y="60"/><ellipse cx="1530.3" cy="76" fill="#ADD1B2" rx="11" ry="11" style="stroke: #A80036; stroke-width: 1.0;"/><path d="M1533.0031,81.4375 Q1532.0813,82.3594 1529.8156,82.3594 Q1528.55,82.3594 1527.6281,81.4375 Q1525.9719,79.7813 1525.9719,76.25 Q1525.9719,72.1406 1527.7531,70.3438 Q1528.6906,69.4219 1529.8781,69.4219 Q1532.1438,69.4219 1532.8781,70.1406 Q1534.2688,71.5469 1534.2063,73.9375 L1531.7375,73.9375 Q1531.675,71.8125 1530.9406,71.0781 Q1530.55,70.6719 1529.8781,70.6719 Q1529.8781,70.6719 1529.8156,71.1406 Q1528.4875,72.4688 1528.4875,76.125 Q1528.4875,79.3125 1529.6281,80.4375 Q1530.1594,80.9688 1530.1594,80.9688 Q1530.4094,80.9688 1530.9406,80.4375 Q1531.6125,79.7813 1531.675,77.3906 L1534.2688,77.3906 Q1534.0656,80.375 1533.0031,81.4375 Z "/><text fill="#000000" font-family="sans-serif" font-size="12" lengthAdjust="spacingAndGlyphs" textLength="63" x="1548.7" y="80.9102">TreeMerger</text><rect fill="#FFFFFF" height="17.0938" style="stroke: #000000; stroke-width: 1.0; stroke-dasharray: 2.0,2.0;" width="94" x="1639.5" y="57"/><text fill="#000000" font-family="sans-serif" font-size="12" font-style="italic" lengthAdjust="spacingAndGlyphs" textLength="92" x="1640.5" y="70.457">TOUT,TIN1,TIN2</text><line style="stroke: #A80036; stroke-width: 1.5;" x1="1496.5" x2="1729.5" y1="92" y2="92"/><polygon fill="none" points="1506.5,98,1510.5,102,1506.5,106,1502.5,102" style="stroke: #B38D22; stroke-width: 1.0;"/><text fill="#000000" font-family="sans-serif" font-size="11" lengthAdjust="spacingAndGlyphs" textLength="74" x="1515.5" y="107.4189">TFile *tree_file_</text><polygon fill="none" points="1506.5,111.8359,1510.5,115.8359,1506.5,119.8359,1502.5,115.8359" style="stroke: #B38D22; stroke-width: 1.0;"/><text fill="#000000" font-family="sans-serif" font-size="11" lengthAdjust="spacingAndGlyphs" textLength="60" x="1515.5" y="121.2549">TTree *tree_</text><polygon fill="none" points="1506.5,125.6719,1510.5,129.6719,1506.5,133.6719,1502.5,129.6719" style="stroke: #B38D22; stroke-width: 1.0;"/><text fill="#000000" font-family="sans-serif" font-size="11" lengthAdjust="spacingAndGlyphs" textLength="132" x="1515.5" y="135.0908">YamlReader *yaml_reader_</text><polygon fill="none" points="1506.5,139.5078,1510.5,143.5078,1506.5,147.5078,1502.5,143.5078" style="stroke: #B38D22; stroke-width: 1.0;"/><text fill="#000000" font-family="sans-serif" font-size="11" lengthAdjust="spacingAndGlyphs" textLength="127" x="1515.5" y="148.9268">RemainTime *remain_time_</text><polygon fill="none" points="1506.5,153.3438,1510.5,157.3438,1506.5,161.3438,1502.5,157.3438" style="stroke: #B38D22; stroke-width: 1.0;"/><text fill="#000000" font-family="sans-serif" font-size="11" lengthAdjust="spacingAndGlyphs" textLength="140" x="1515.5" y="162.7627">Double_t time_window_low_</text><polygon fill="none" points="1506.5,167.1797,1510.5,171.1797,1506.5,175.1797,1502.5,171.1797" style="stroke: #B38D22; stroke-width: 1.0;"/><text fill="#000000" font-family="sans-serif" font-size="11" lengthAdjust="spacingAndGlyphs" textLength="134" x="1515.5" y="176.5986">Double_t time_window_up_</text><polygon fill="none" points="1506.5,181.0156,1510.5,185.0156,1506.5,189.0156,1502.5,185.0156" style="stroke: #B38D22; stroke-width: 1.0;"/><text fill="#000000" font-family="sans-serif" font-size="11" lengthAdjust="spacingAndGlyphs" textLength="121" x="1515.5" y="190.4346">Double_t scan_window_</text><polygon fill="none" points="1506.5,194.8516,1510.5,198.8516,1506.5,202.8516,1502.5,198.8516" style="stroke: #B38D22; stroke-width: 1.0;"/><text fill="#000000" font-family="sans-serif" font-size="11" lengthAdjust="spacingAndGlyphs" textLength="92" x="1515.5" y="204.2705">Double_t ts_scale_</text><polygon fill="none" points="1506.5,208.6875,1510.5,212.6875,1506.5,216.6875,1502.5,212.6875" style="stroke: #B38D22; stroke-width: 1.0;"/><text fill="#000000" font-family="sans-serif" font-size="11" lengthAdjust="spacingAndGlyphs" textLength="108" x="1515.5" y="218.1064">ULong64_t print_freq_</text><polygon fill="none" points="1506.5,222.5234,1510.5,226.5234,1506.5,230.5234,1502.5,226.5234" style="stroke: #B38D22; stroke-width: 1.0;"/><text fill="#000000" font-family="sans-serif" font-size="11" lengthAdjust="spacingAndGlyphs" textLength="101" x="1515.5" y="231.9424">TOUT output_object_</text><text fill="#000000" font-family="sans-serif" font-size="11" lengthAdjust="spacingAndGlyphs" textLength="0" x="1518.5" y="245.7783"/><polygon fill="none" points="1506.5,250.1953,1510.5,254.1953,1506.5,258.1953,1502.5,254.1953" style="stroke: #B38D22; stroke-width: 1.0;"/><text fill="#000000" font-family="sans-serif" font-size="11" lengthAdjust="spacingAndGlyphs" textLength="209" x="1515.5" y="259.6143">TSScannorBase&lt;TIN1&gt; *input_scannor_1_;</text><polygon fill="none" points="1506.5,264.0313,1510.5,268.0313,1506.5,272.0313,1502.5,268.0313" style="stroke: #B38D22; stroke-width: 1.0;"/><text fill="#000000" font-family="sans-serif" font-size="11" lengthAdjust="spacingAndGlyphs" textLength="209" x="1515.5" y="273.4502">TSScannorBase&lt;TIN2&gt; *input_scannor_2_;</text><line style="stroke: #A80036; stroke-width: 1.5;" x1="1496.5" x2="1729.5" y1="279.8672" y2="279.8672"/><ellipse cx="1506.5" cy="290.8672" fill="#84BE84" rx="3" ry="3" style="stroke: #038048; stroke-width: 1.0;"/><text fill="#000000" font-family="sans-serif" font-size="11" lengthAdjust="spacingAndGlyphs" textLength="169" x="1515.5" y="295.2861">Configure(string yaml_node_name)</text><ellipse cx="1506.5" cy="304.7031" fill="#84BE84" rx="3" ry="3" style="stroke: #038048; stroke-width: 1.0;"/><text fill="#000000" font-family="sans-serif" font-size="11" lengthAdjust="spacingAndGlyphs" textLength="38" x="1515.5" y="309.1221">Merge()</text><ellipse cx="1506.5" cy="318.5391" fill="#84BE84" rx="3" ry="3" style="stroke: #038048; stroke-width: 1.0;"/><text fill="#000000" font-family="sans-serif" font-size="11" lengthAdjust="spacingAndGlyphs" textLength="33" x="1515.5" y="322.958">Write()</text><ellipse cx="1506.5" cy="332.375" fill="#84BE84" rx="3" ry="3" style="stroke: #038048; stroke-width: 1.0;"/><text fill="#000000" font-family="sans-serif" font-size="11" lengthAdjust="spacingAndGlyphs" textLength="152" x="1515.5" y="336.7939">bool IsInGate(TIN1 in1, TIN2 in2)</text><path d="M1158,180 L1158,222.7031 A0,0 0 0 0 1158,222.7031 L1460,222.7031 A0,0 0 0 0 1460,222.7031 L1460,205.5 L1495.35,201.5 L1460,197.5 L1460,190 L1450,180 L1158,180 A0,0 0 0 0 1158,180 " fill="#FBFB77" filter="url(#fqo7tpniyvbqe)" style="stroke: #A80036; stroke-width: 1.0;"/><path d="M1450,180 L1450,190 L1460,190 L1450,180 " fill="#FBFB77" style="stroke: #A80036; stroke-width: 1.0;"/><text fill="#000000" font-family="sans-serif" font-size="13" lengthAdjust="spacingAndGlyphs" textLength="281" x="1164" y="198.4951">A base merger class for merging events between</text><text fill="#000000" font-family="sans-serif" font-size="13" lengthAdjust="spacingAndGlyphs" textLength="210" x="1164" y="214.8467">two trees with a common timestamp</text><!--class BetaTreeMerger--><rect fill="#FEFECE" filter="url(#fqo7tpniyvbqe)" height="89.5078" id="BetaTreeMerger" style="stroke: #A80036; stroke-width: 1.5;" width="216" x="1510" y="527.5"/><ellipse cx="1525" cy="543.5" fill="#ADD1B2" rx="11" ry="11" style="stroke: #A80036; stroke-width: 1.0;"/><path d="M1527.7031,548.9375 Q1526.7813,549.8594 1524.5156,549.8594 Q1523.25,549.8594 1522.3281,548.9375 Q1520.6719,547.2813 1520.6719,543.75 Q1520.6719,539.6406 1522.4531,537.8438 Q1523.3906,536.9219 1524.5781,536.9219 Q1526.8438,536.9219 1527.5781,537.6406 Q1528.9688,539.0469 1528.9063,541.4375 L1526.4375,541.4375 Q1526.375,539.3125 1525.6406,538.5781 Q1525.25,538.1719 1524.5781,538.1719 Q1524.5781,538.1719 1524.5156,538.6406 Q1523.1875,539.9688 1523.1875,543.625 Q1523.1875,546.8125 1524.3281,547.9375 Q1524.8594,548.4688 1524.8594,548.4688 Q1525.1094,548.4688 1525.6406,547.9375 Q1526.3125,547.2813 1526.375,544.8906 L1528.9688,544.8906 Q1528.7656,547.875 1527.7031,548.9375 Z "/><text fill="#000000" font-family="sans-serif" font-size="12" lengthAdjust="spacingAndGlyphs" textLength="88" x="1539" y="548.4102">BetaTreeMerger</text><rect fill="#FFFFFF" height="17.0938" style="stroke: #000000; stroke-width: 1.0; stroke-dasharray: 2.0,2.0;" width="94" x="1635" y="524.5"/><text fill="#000000" font-family="sans-serif" font-size="12" font-style="italic" lengthAdjust="spacingAndGlyphs" textLength="92" x="1636" y="537.957">TOUT,TIN1,TIN2</text><line style="stroke: #A80036; stroke-width: 1.5;" x1="1511" x2="1725" y1="559.5" y2="559.5"/><polygon fill="none" points="1521,565.5,1525,569.5,1521,573.5,1517,569.5" style="stroke: #B38D22; stroke-width: 1.0;"/><text fill="#000000" font-family="sans-serif" font-size="11" lengthAdjust="spacingAndGlyphs" textLength="54" x="1530" y="574.9189">*yso_map_</text><polygon fill="none" points="1521,579.3359,1525,583.3359,1521,587.3359,1517,583.3359" style="stroke: #B38D22; stroke-width: 1.0;"/><text fill="#000000" font-family="sans-serif" font-size="11" lengthAdjust="spacingAndGlyphs" textLength="93" x="1530" y="588.7549">correlation_radius_</text><line style="stroke: #A80036; stroke-width: 1.5;" x1="1511" x2="1725" y1="595.1719" y2="595.1719"/><ellipse cx="1521" cy="606.1719" fill="#84BE84" rx="3" ry="3" style="stroke: #038048; stroke-width: 1.0;"/><text fill="#000000" font-family="sans-serif" font-size="11" lengthAdjust="spacingAndGlyphs" textLength="47" x="1530" y="610.5908">IsInGate()</text><path d="M1161.5,551 L1161.5,593.7031 A0,0 0 0 0 1161.5,593.7031 L1474.5,593.7031 A0,0 0 0 0 1474.5,593.7031 L1474.5,576.5 L1509.99,572.5 L1474.5,568.5 L1474.5,561 L1464.5,551 L1161.5,551 A0,0 0 0 0 1161.5,551 " fill="#FBFB77" filter="url(#fqo7tpniyvbqe)" style="stroke: #A80036; stroke-width: 1.0;"/><path d="M1464.5,551 L1464.5,561 L1474.5,561 L1464.5,551 " fill="#FBFB77" style="stroke: #A80036; stroke-width: 1.0;"/><text fill="#000000" font-family="sans-serif" font-size="13" lengthAdjust="spacingAndGlyphs" textLength="256" x="1167.5" y="569.4951">A tree merger class derived from TreeMerger</text><text fill="#000000" font-family="sans-serif" font-size="13" lengthAdjust="spacingAndGlyphs" textLength="292" x="1167.5" y="585.8467">specific for merging beta events with YSO detector</text><!--class YSOPositionData--><rect fill="#FEFECE" filter="url(#fqo7tpniyvbqe)" height="172.5234" id="YSOPositionData" style="stroke: #A80036; stroke-width: 1.5;" width="127" x="1592.5" y="1062"/><ellipse cx="1607.5" cy="1078" fill="#ADD1B2" rx="11" ry="11" style="stroke: #A80036; stroke-width: 1.0;"/><path d="M1610.2031,1083.4375 Q1609.2813,1084.3594 1607.0156,1084.3594 Q1605.75,1084.3594 1604.8281,1083.4375 Q1603.1719,1081.7813 1603.1719,1078.25 Q1603.1719,1074.1406 1604.9531,1072.3438 Q1605.8906,1071.4219 1607.0781,1071.4219 Q1609.3438,1071.4219 1610.0781,1072.1406 Q1611.4688,1073.5469 1611.4063,1075.9375 L1608.9375,1075.9375 Q1608.875,1073.8125 1608.1406,1073.0781 Q1607.75,1072.6719 1607.0781,1072.6719 Q1607.0781,1072.6719 1607.0156,1073.1406 Q1605.6875,1074.4688 1605.6875,1078.125 Q1605.6875,1081.3125 1606.8281,1082.4375 Q1607.3594,1082.9688 1607.3594,1082.9688 Q1607.6094,1082.9688 1608.1406,1082.4375 Q1608.8125,1081.7813 1608.875,1079.3906 L1611.4688,1079.3906 Q1611.2656,1082.375 1610.2031,1083.4375 Z "/><text fill="#000000" font-family="sans-serif" font-size="12" lengthAdjust="spacingAndGlyphs" textLength="95" x="1621.5" y="1082.9102">YSOPositionData</text><line style="stroke: #A80036; stroke-width: 1.5;" x1="1593.5" x2="1718.5" y1="1094" y2="1094"/><polygon fill="none" points="1603.5,1100,1607.5,1104,1603.5,1108,1599.5,1104" style="stroke: #B38D22; stroke-width: 1.0;"/><text fill="#000000" font-family="sans-serif" font-size="11" lengthAdjust="spacingAndGlyphs" textLength="33" x="1612.5" y="1109.4189">fBetaX</text><polygon fill="none" points="1603.5,1113.8359,1607.5,1117.8359,1603.5,1121.8359,1599.5,1117.8359" style="stroke: #B38D22; stroke-width: 1.0;"/><text fill="#000000" font-family="sans-serif" font-size="11" lengthAdjust="spacingAndGlyphs" textLength="34" x="1612.5" y="1123.2549">fBetaY</text><polygon fill="none" points="1603.5,1127.6719,1607.5,1131.6719,1603.5,1135.6719,1599.5,1131.6719" style="stroke: #B38D22; stroke-width: 1.0;"/><text fill="#000000" font-family="sans-serif" font-size="11" lengthAdjust="spacingAndGlyphs" textLength="25" x="1612.5" y="1137.0908">fIonX</text><polygon fill="none" points="1603.5,1141.5078,1607.5,1145.5078,1603.5,1149.5078,1599.5,1145.5078" style="stroke: #B38D22; stroke-width: 1.0;"/><text fill="#000000" font-family="sans-serif" font-size="11" lengthAdjust="spacingAndGlyphs" textLength="26" x="1612.5" y="1150.9268">fIonY</text><polygon fill="none" points="1603.5,1155.3438,1607.5,1159.3438,1603.5,1163.3438,1599.5,1159.3438" style="stroke: #B38D22; stroke-width: 1.0;"/><text fill="#000000" font-family="sans-serif" font-size="11" lengthAdjust="spacingAndGlyphs" textLength="34" x="1612.5" y="1164.7627">kBetaR</text><polygon fill="none" points="1603.5,1169.1797,1607.5,1173.1797,1603.5,1177.1797,1599.5,1173.1797" style="stroke: #B38D22; stroke-width: 1.0;"/><text fill="#000000" font-family="sans-serif" font-size="11" lengthAdjust="spacingAndGlyphs" textLength="26" x="1612.5" y="1178.5986">kIonR</text><line style="stroke: #A80036; stroke-width: 1.5;" x1="1593.5" x2="1718.5" y1="1185.0156" y2="1185.0156"/><ellipse cx="1603.5" cy="1196.0156" fill="#84BE84" rx="3" ry="3" style="stroke: #038048; stroke-width: 1.0;"/><text fill="#000000" font-family="sans-serif" font-size="11" lengthAdjust="spacingAndGlyphs" textLength="67" x="1612.5" y="1200.4346">SetPositions()</text><ellipse cx="1603.5" cy="1209.8516" fill="#84BE84" rx="3" ry="3" style="stroke: #038048; stroke-width: 1.0;"/><text fill="#000000" font-family="sans-serif" font-size="11" lengthAdjust="spacingAndGlyphs" textLength="66" x="1612.5" y="1214.2705">BetaIsInside()</text><ellipse cx="1603.5" cy="1223.6875" fill="#84BE84" rx="3" ry="3" style="stroke: #038048; stroke-width: 1.0;"/><text fill="#000000" font-family="sans-serif" font-size="11" lengthAdjust="spacingAndGlyphs" textLength="58" x="1612.5" y="1228.1064">IonIsInside()</text><path d="M1325,1135.5 L1325,1161.8516 A0,0 0 0 0 1325,1161.8516 L1557,1161.8516 A0,0 0 0 0 1557,1161.8516 L1557,1153.5 L1592.4,1148.5 L1557,1145.5 L1557,1145.5 L1547,1135.5 L1325,1135.5 A0,0 0 0 0 1325,1135.5 " fill="#FBFB77" filter="url(#fqo7tpniyvbqe)" style="stroke: #A80036; stroke-width: 1.0;"/><path d="M1547,1135.5 L1547,1145.5 L1557,1145.5 L1547,1135.5 " fill="#FBFB77" style="stroke: #A80036; stroke-width: 1.0;"/><text fill="#000000" font-family="sans-serif" font-size="13" lengthAdjust="spacingAndGlyphs" textLength="211" x="1331" y="1153.9951">A class for a single segment of YSO</text><!--class YSOMap--><rect fill="#FEFECE" filter="url(#fqo7tpniyvbqe)" height="200.1953" id="YSOMap" style="stroke: #A80036; stroke-width: 1.5;" width="150" x="1581" y="802"/><ellipse cx="1628.25" cy="818" fill="#ADD1B2" rx="11" ry="11" style="stroke: #A80036; stroke-width: 1.0;"/><path d="M1630.9531,823.4375 Q1630.0313,824.3594 1627.7656,824.3594 Q1626.5,824.3594 1625.5781,823.4375 Q1623.9219,821.7813 1623.9219,818.25 Q1623.9219,814.1406 1625.7031,812.3438 Q1626.6406,811.4219 1627.8281,811.4219 Q1630.0938,811.4219 1630.8281,812.1406 Q1632.2188,813.5469 1632.1563,815.9375 L1629.6875,815.9375 Q1629.625,813.8125 1628.8906,813.0781 Q1628.5,812.6719 1627.8281,812.6719 Q1627.8281,812.6719 1627.7656,813.1406 Q1626.4375,814.4688 1626.4375,818.125 Q1626.4375,821.3125 1627.5781,822.4375 Q1628.1094,822.9688 1628.1094,822.9688 Q1628.3594,822.9688 1628.8906,822.4375 Q1629.5625,821.7813 1629.625,819.3906 L1632.2188,819.3906 Q1632.0156,822.375 1630.9531,823.4375 Z "/><text fill="#000000" font-family="sans-serif" font-size="12" lengthAdjust="spacingAndGlyphs" textLength="47" x="1648.75" y="822.9102">YSOMap</text><line style="stroke: #A80036; stroke-width: 1.5;" x1="1582" x2="1730" y1="834" y2="834"/><polygon fill="none" points="1592,840,1596,844,1592,848,1588,844" style="stroke: #B38D22; stroke-width: 1.0;"/><text fill="#000000" font-family="sans-serif" font-size="11" lengthAdjust="spacingAndGlyphs" textLength="115" x="1601" y="849.4189">fVectorOfYSOPositions</text><polygon fill="none" points="1592,853.8359,1596,857.8359,1592,861.8359,1588,857.8359" style="stroke: #B38D22; stroke-width: 1.0;"/><text fill="#000000" font-family="sans-serif" font-size="11" lengthAdjust="spacingAndGlyphs" textLength="24" x="1601" y="863.2549">fMap</text><polygon fill="none" points="1592,867.6719,1596,871.6719,1592,875.6719,1588,871.6719" style="stroke: #B38D22; stroke-width: 1.0;"/><text fill="#000000" font-family="sans-serif" font-size="11" lengthAdjust="spacingAndGlyphs" textLength="40" x="1601" y="877.0908">fNumDiv</text><polygon fill="none" points="1592,881.5078,1596,885.5078,1592,889.5078,1588,885.5078" style="stroke: #B38D22; stroke-width: 1.0;"/><text fill="#000000" font-family="sans-serif" font-size="11" lengthAdjust="spacingAndGlyphs" textLength="42" x="1601" y="890.9268">fRangeX</text><polygon fill="none" points="1592,895.3438,1596,899.3438,1592,903.3438,1588,899.3438" style="stroke: #B38D22; stroke-width: 1.0;"/><text fill="#000000" font-family="sans-serif" font-size="11" lengthAdjust="spacingAndGlyphs" textLength="43" x="1601" y="904.7627">fRangeY</text><polygon fill="none" points="1592,909.1797,1596,913.1797,1592,917.1797,1588,913.1797" style="stroke: #B38D22; stroke-width: 1.0;"/><text fill="#000000" font-family="sans-serif" font-size="11" lengthAdjust="spacingAndGlyphs" textLength="27" x="1601" y="918.5986">fMinX</text><polygon fill="none" points="1592,923.0156,1596,927.0156,1592,931.0156,1588,927.0156" style="stroke: #B38D22; stroke-width: 1.0;"/><text fill="#000000" font-family="sans-serif" font-size="11" lengthAdjust="spacingAndGlyphs" textLength="28" x="1601" y="932.4346">fMinY</text><line style="stroke: #A80036; stroke-width: 1.5;" x1="1582" x2="1730" y1="938.8516" y2="938.8516"/><polygon fill="#FFFF44" points="1592,944.8516,1596,948.8516,1592,952.8516,1588,948.8516" style="stroke: #B38D22; stroke-width: 1.0;"/><text fill="#000000" font-family="sans-serif" font-size="11" lengthAdjust="spacingAndGlyphs" textLength="33" x="1601" y="954.2705">GetId()</text><ellipse cx="1592" cy="963.6875" fill="#84BE84" rx="3" ry="3" style="stroke: #038048; stroke-width: 1.0;"/><text fill="#000000" font-family="sans-serif" font-size="11" lengthAdjust="spacingAndGlyphs" textLength="73" x="1601" y="968.1064">GenerateMap()</text><ellipse cx="1592" cy="977.5234" fill="#84BE84" rx="3" ry="3" style="stroke: #038048; stroke-width: 1.0;"/><text fill="#000000" font-family="sans-serif" font-size="11" lengthAdjust="spacingAndGlyphs" textLength="44" x="1601" y="981.9424">IsInside()</text><ellipse cx="1592" cy="991.3594" fill="#84BE84" rx="3" ry="3" style="stroke: #038048; stroke-width: 1.0;"/><text fill="#000000" font-family="sans-serif" font-size="11" lengthAdjust="spacingAndGlyphs" textLength="124" x="1601" y="995.7783">LoadPositionParameters()</text><path d="M1252,864.5 L1252,939.9063 A0,0 0 0 0 1252,939.9063 L1546,939.9063 A0,0 0 0 0 1546,939.9063 L1546,906 L1580.85,902 L1546,898 L1546,874.5 L1536,864.5 L1252,864.5 A0,0 0 0 0 1252,864.5 " fill="#FBFB77" filter="url(#fqo7tpniyvbqe)" style="stroke: #A80036; stroke-width: 1.0;"/><path d="M1536,864.5 L1536,874.5 L1546,874.5 L1536,864.5 " fill="#FBFB77" style="stroke: #A80036; stroke-width: 1.0;"/><text fill="#000000" font-family="sans-serif" font-size="13" lengthAdjust="spacingAndGlyphs" textLength="176" x="1258" y="882.9951">A class for the YSO pixel map</text><text fill="#000000" font-family="sans-serif" font-size="13" lengthAdjust="spacingAndGlyphs" textLength="228" x="1258" y="899.3467">IsInside() returns if a given beta position</text><text fill="#000000" font-family="sans-serif" font-size="13" lengthAdjust="spacingAndGlyphs" textLength="273" x="1258" y="915.6982">and a implant position are inside the correlation</text><text fill="#000000" font-family="sans-serif" font-size="13" lengthAdjust="spacingAndGlyphs" textLength="46" x="1258" y="932.0498">window.</text><!--reverse link TSScanorBase to ImplantTSScanor--><path d="M486.634,759.749 C464.825,799.429 444.004,837.312 429.425,863.839 " fill="none" id="TSScanorBase&lt;-ImplantTSScanor" style="stroke: #A80036; stroke-width: 1.0;"/><polygon fill="none" points="480.596,756.202,496.364,742.047,492.865,762.946,480.596,756.202" style="stroke: #A80036; stroke-width: 1.0;"/><!--reverse link TSScanorBase to BigRIPSTSScanor--><path d="M410.152,708.46 C335.505,764.79 254.639,825.811 204.399,863.723 " fill="none" id="TSScanorBase&lt;-BigRIPSTSScanor" style="stroke: #A80036; stroke-width: 1.0;"/><polygon fill="none" points="406.287,702.607,426.468,696.148,414.72,713.782,406.287,702.607" style="stroke: #A80036; stroke-width: 1.0;"/><!--reverse link TSScanorBase to MergedImplantTSScanor--><path d="M691.935,759.749 C713.865,799.429 734.801,837.312 749.462,863.839 " fill="none" id="TSScanorBase&lt;-MergedImplantTSScanor" style="stroke: #A80036; stroke-width: 1.0;"/><polygon fill="none" points="685.699,762.937,682.151,742.047,697.952,756.165,685.699,762.937" style="stroke: #A80036; stroke-width: 1.0;"/><!--reverse link TSScanorBase to BetaTSScanor--><path d="M769.847,659.903 C846.58,699.458 935.534,749.248 1011,802 C1037.38,820.437 1064.48,844.24 1085.41,863.886 " fill="none" id="TSScanorBase&lt;-BetaTSScanor" style="stroke: #A80036; stroke-width: 1.0;"/><polygon fill="none" points="766.259,665.931,751.641,650.591,772.635,653.467,766.259,665.931" style="stroke: #A80036; stroke-width: 1.0;"/><!--reverse link TreeMerger to BetaTreeMerger--><path d="M1615.18,363.18 C1615.99,423.016 1616.84,486.251 1617.4,527.14 " fill="none" id="TreeMerger&lt;-BetaTreeMerger" style="stroke: #A80036; stroke-width: 1.0;"/><polygon fill="none" points="1608.18,363.149,1614.9,343.056,1622.17,362.959,1608.18,363.149" style="stroke: #A80036; stroke-width: 1.0;"/><!--reverse link BetaTreeMerger to YSOMap--><path d="M1624.64,630.691 C1630.11,677.852 1638,745.855 1644.5,801.854 " fill="none" id="BetaTreeMerger&lt;-YSOMap" style="stroke: #A80036; stroke-width: 1.0;"/><polygon fill="#A80036" points="1623.12,617.668,1619.8383,624.0891,1624.5032,629.588,1627.7849,623.1669,1623.12,617.668" style="stroke: #A80036; stroke-width: 1.0;"/><text fill="#000000" font-family="sans-serif" font-size="13" lengthAdjust="spacingAndGlyphs" textLength="7" x="1616.3377" y="638.3643">1</text><text fill="#000000" font-family="sans-serif" font-size="13" lengthAdjust="spacingAndGlyphs" textLength="7" x="1636.3516" y="791.0752">1</text><!--reverse link YSOMap to YSOPositionData--><path d="M1656,1015.136 C1656,1030.75 1656,1046.585 1656,1061.613 " fill="none" id="YSOMap&lt;-YSOPositionData" style="stroke: #A80036; stroke-width: 1.0;"/><polygon fill="#A80036" points="1656,1002.095,1652,1008.095,1656,1014.095,1660,1008.095,1656,1002.095" style="stroke: #A80036; stroke-width: 1.0;"/><text fill="#000000" font-family="sans-serif" font-size="13" lengthAdjust="spacingAndGlyphs" textLength="7" x="1648.743" y="1023.5341">1</text><text fill="#000000" font-family="sans-serif" font-size="13" lengthAdjust="spacingAndGlyphs" textLength="32" x="1622.675" y="1051.2846">many</text><!--
@startuml
package "merger and timestamp scanor classes" #DDDDDD {
    class TSScanorBase <T> {
        # TFile *tree_file_
        # TTreeReader *tree_reader_
        # std::map<ULong64_t,T> ts_entry_map_
        # std::map<ULong64_t,ULong64_t> ts_i_entry_map_
        # ULong64_t first_entry_
        # ULong64_t last_entry_
        # std::map<std::string,std::pair<std::string,void*>> branch_map_
        # TTreeReaderValue<T> *tree_data_
        
        + Configure()
        + SetReader()
        + Scan()
        + LoadEntries()
        + GetIEntryMap()
        + GetMap()
        + GetIEntry()
        + Restart()
        + T* GetEntry()
        + GetCurrentEntry()
        + GetTree()
        # GetTS()
        # IsInGate()
    }
    note top of TSScanorBase
        A base class that scans a ROOT tree and generates a map of
        event numbers and timestamps
    end note

    class BigRIPSTSScanor <BigRIPSTreeData> {
        + GetTS()
        + IsInGate()
    }

    class ImplantTSScanor <PixTreeEvent> {
        + GetTS()
        + IsInGate()
    }

    class MergedImplantTSScanor <OutputTreeData<PixTreeEvent,BigRIPSTreeData>> {
        + GetTS()
        + IsInGate()
    }

    class BetaTSScanor <PixTreeEvent> {
        + GetTS()
        + IsInGate()
    }

    class TreeMerger<TOUT,TIN1,TIN2> {
        # TFile *tree_file_ 
        # TTree *tree_
        # YamlReader *yaml_reader_
        # RemainTime *remain_time_
        # Double_t time_window_low_
        # Double_t time_window_up_
        # Double_t scan_window_
        # Double_t ts_scale_
        # ULong64_t print_freq_
        # TOUT output_object_

        # TSScannorBase<TIN1> *input_scannor_1_; 
        # TSScannorBase<TIN2> *input_scannor_2_;

        + Configure(string yaml_node_name)
        + Merge()
        + Write()
        + bool IsInGate(TIN1 in1, TIN2 in2)
    }
    note left of TreeMerger
        A base merger class for merging events between
        two trees with a common timestamp
    end note

    class BetaTreeMerger<TOUT,TIN1,TIN2> {
        + IsInGate()
        # *yso_map_
        # correlation_radius_
    }
    note left of BetaTreeMerger
        A tree merger class derived from TreeMerger
        specific for merging beta events with YSO detector
    end note

    class YSOPositionData {
        # fBetaX
        # fBetaY
        # fIonX
        # fIonY
        # kBetaR
        # kIonR
        + SetPositions()
        + BetaIsInside()
        + IonIsInside()
    }
    note left of YSOPositionData
        A class for a single segment of YSO
    end note

    class YSOMap{
        # fVectorOfYSOPositions
        # fMap
        # fNumDiv
        # fRangeX
        # fRangeY
        # fMinX
        # fMinY
        # GetId()
        + GenerateMap()
        + IsInside()
        + LoadPositionParameters()
    }
    note left of YSOMap
        A class for the YSO pixel map
        IsInside() returns if a given beta position
        and a implant position are inside the correlation
        window.
    end note

    TSScanorBase <|- - ImplantTSScanor
    TSScanorBase <|- - BigRIPSTSScanor
    TSScanorBase <|- - MergedImplantTSScanor
    TSScanorBase <|- - BetaTSScanor
    TreeMerger <|- - BetaTreeMerger
    BetaTreeMerger "1" *- - "1" YSOMap
    YSOMap "1" *- - "many" YSOPositionData
}
@enduml

PlantUML version 1.2019.09(Mon Aug 26 12:19:51 EDT 2019)
(GPL source distribution)
Java Runtime: Java(TM) SE Runtime Environment
JVM: Java HotSpot(TM) Client VM
Java Version: 1.8.0_241-b07
Operating System: Windows 10
OS Version: 10.0
Default Encoding: MS932
Language: ja
Country: JP
--></g></svg>