<?xml version="1.0" encoding="UTF-8" standalone="no"?><svg xmlns="http://www.w3.org/2000/svg" xmlns:xlink="http://www.w3.org/1999/xlink" contentScriptType="application/ecmascript" contentStyleType="text/css" height="480px" preserveAspectRatio="none" style="width:1022px;height:480px;" version="1.1" viewBox="0 0 1022 480" width="1022px" zoomAndPan="magnify"><defs><filter height="300%" id="f16bkl4g7boui0" width="300%" x="-1" y="-1"><feGaussianBlur result="blurOut" stdDeviation="2.0"/><feColorMatrix in="blurOut" result="blurOut2" type="matrix" values="0 0 0 0 0 0 0 0 0 0 0 0 0 0 0 0 0 0 .4 0"/><feOffset dx="4.0" dy="4.0" in="blurOut2" result="blurOut3"/><feBlend in="SourceGraphic" in2="blurOut3" mode="normal"/></filter></defs><g><!--cluster container classes--><polygon fill="#DDDDDD" filter="url(#f16bkl4g7boui0)" points="22,24,152,24,159,47.6094,1000,47.6094,1000,468,22,468,22,24" style="stroke: #000000; stroke-width: 1.5;"/><line style="stroke: #000000; stroke-width: 1.5;" x1="22" x2="159" y1="47.6094" y2="47.6094"/><text fill="#000000" font-family="sans-serif" font-size="14" font-weight="bold" lengthAdjust="spacingAndGlyphs" textLength="124" x="26" y="40.5332">container classes</text><!--class BigRIPSTreeData--><rect fill="#FEFECE" filter="url(#f16bkl4g7boui0)" height="214.0313" id="BigRIPSTreeData" style="stroke: #A80036; stroke-width: 1.5;" width="129" x="467.5" y="81"/><ellipse cx="482.5" cy="97" fill="#ADD1B2" rx="11" ry="11" style="stroke: #A80036; stroke-width: 1.0;"/><path d="M485.2031,102.4375 Q484.2813,103.3594 482.0156,103.3594 Q480.75,103.3594 479.8281,102.4375 Q478.1719,100.7813 478.1719,97.25 Q478.1719,93.1406 479.9531,91.3438 Q480.8906,90.4219 482.0781,90.4219 Q484.3438,90.4219 485.0781,91.1406 Q486.4688,92.5469 486.4063,94.9375 L483.9375,94.9375 Q483.875,92.8125 483.1406,92.0781 Q482.75,91.6719 482.0781,91.6719 Q482.0781,91.6719 482.0156,92.1406 Q480.6875,93.4688 480.6875,97.125 Q480.6875,100.3125 481.8281,101.4375 Q482.3594,101.9688 482.3594,101.9688 Q482.6094,101.9688 483.1406,101.4375 Q483.8125,100.7813 483.875,98.3906 L486.4688,98.3906 Q486.2656,101.375 485.2031,102.4375 Z "/><text fill="#000000" font-family="sans-serif" font-size="12" lengthAdjust="spacingAndGlyphs" textLength="97" x="496.5" y="101.9102">BigRIPSTreeData</text><line style="stroke: #A80036; stroke-width: 1.5;" x1="468.5" x2="595.5" y1="113" y2="113"/><ellipse cx="478.5" cy="124" fill="none" rx="3" ry="3" style="stroke: #038048; stroke-width: 1.0;"/><text fill="#000000" font-family="sans-serif" font-size="11" lengthAdjust="spacingAndGlyphs" textLength="9" x="487.5" y="128.4189">ts</text><ellipse cx="478.5" cy="137.8359" fill="none" rx="3" ry="3" style="stroke: #038048; stroke-width: 1.0;"/><text fill="#000000" font-family="sans-serif" font-size="11" lengthAdjust="spacingAndGlyphs" textLength="15" x="487.5" y="142.2549">sts</text><ellipse cx="478.5" cy="151.6719" fill="none" rx="3" ry="3" style="stroke: #038048; stroke-width: 1.0;"/><text fill="#000000" font-family="sans-serif" font-size="11" lengthAdjust="spacingAndGlyphs" textLength="13" x="487.5" y="156.0908">tof</text><ellipse cx="478.5" cy="165.5078" fill="none" rx="3" ry="3" style="stroke: #038048; stroke-width: 1.0;"/><text fill="#000000" font-family="sans-serif" font-size="11" lengthAdjust="spacingAndGlyphs" textLength="15" x="487.5" y="169.9268">zet</text><ellipse cx="478.5" cy="179.3438" fill="none" rx="3" ry="3" style="stroke: #038048; stroke-width: 1.0;"/><text fill="#000000" font-family="sans-serif" font-size="11" lengthAdjust="spacingAndGlyphs" textLength="18" x="487.5" y="183.7627">aoq</text><ellipse cx="478.5" cy="193.1797" fill="none" rx="3" ry="3" style="stroke: #038048; stroke-width: 1.0;"/><text fill="#000000" font-family="sans-serif" font-size="11" lengthAdjust="spacingAndGlyphs" textLength="16" x="487.5" y="197.5986">f5x</text><ellipse cx="478.5" cy="207.0156" fill="none" rx="3" ry="3" style="stroke: #038048; stroke-width: 1.0;"/><text fill="#000000" font-family="sans-serif" font-size="11" lengthAdjust="spacingAndGlyphs" textLength="22" x="487.5" y="211.4346">f11x</text><ellipse cx="478.5" cy="220.8516" fill="none" rx="3" ry="3" style="stroke: #038048; stroke-width: 1.0;"/><text fill="#000000" font-family="sans-serif" font-size="11" lengthAdjust="spacingAndGlyphs" textLength="22" x="487.5" y="225.2705">f11y</text><ellipse cx="478.5" cy="234.6875" fill="none" rx="3" ry="3" style="stroke: #038048; stroke-width: 1.0;"/><text fill="#000000" font-family="sans-serif" font-size="11" lengthAdjust="spacingAndGlyphs" textLength="21" x="487.5" y="239.1064">beta</text><ellipse cx="478.5" cy="248.5234" fill="none" rx="3" ry="3" style="stroke: #038048; stroke-width: 1.0;"/><text fill="#000000" font-family="sans-serif" font-size="11" lengthAdjust="spacingAndGlyphs" textLength="35" x="487.5" y="252.9424">EventId</text><ellipse cx="478.5" cy="262.3594" fill="none" rx="3" ry="3" style="stroke: #038048; stroke-width: 1.0;"/><text fill="#000000" font-family="sans-serif" font-size="11" lengthAdjust="spacingAndGlyphs" textLength="27" x="487.5" y="266.7783">RunId</text><line style="stroke: #A80036; stroke-width: 1.5;" x1="468.5" x2="595.5" y1="273.1953" y2="273.1953"/><ellipse cx="478.5" cy="284.1953" fill="#84BE84" rx="3" ry="3" style="stroke: #038048; stroke-width: 1.0;"/><text fill="#000000" font-family="sans-serif" font-size="11" lengthAdjust="spacingAndGlyphs" textLength="33" x="487.5" y="288.6143">Clear()</text><!--class beamline_detector_struc--><rect fill="#FEFECE" filter="url(#f16bkl4g7boui0)" height="75.6719" id="beamline_detector_struc" style="stroke: #A80036; stroke-width: 1.5;" width="169" x="154.5" y="376"/><ellipse cx="169.5" cy="392" fill="#ADD1B2" rx="11" ry="11" style="stroke: #A80036; stroke-width: 1.0;"/><path d="M172.2031,397.4375 Q171.2813,398.3594 169.0156,398.3594 Q167.75,398.3594 166.8281,397.4375 Q165.1719,395.7813 165.1719,392.25 Q165.1719,388.1406 166.9531,386.3438 Q167.8906,385.4219 169.0781,385.4219 Q171.3438,385.4219 172.0781,386.1406 Q173.4688,387.5469 173.4063,389.9375 L170.9375,389.9375 Q170.875,387.8125 170.1406,387.0781 Q169.75,386.6719 169.0781,386.6719 Q169.0781,386.6719 169.0156,387.1406 Q167.6875,388.4688 167.6875,392.125 Q167.6875,395.3125 168.8281,396.4375 Q169.3594,396.9688 169.3594,396.9688 Q169.6094,396.9688 170.1406,396.4375 Q170.8125,395.7813 170.875,393.3906 L173.4688,393.3906 Q173.2656,396.375 172.2031,397.4375 Z "/><text fill="#000000" font-family="sans-serif" font-size="12" lengthAdjust="spacingAndGlyphs" textLength="137" x="183.5" y="396.9102">beamline_detector_struc</text><line style="stroke: #A80036; stroke-width: 1.5;" x1="155.5" x2="322.5" y1="408" y2="408"/><ellipse cx="165.5" cy="419" fill="none" rx="3" ry="3" style="stroke: #038048; stroke-width: 1.0;"/><text fill="#000000" font-family="sans-serif" font-size="11" lengthAdjust="spacingAndGlyphs" textLength="40" x="174.5" y="423.4189">energy_</text><ellipse cx="165.5" cy="432.8359" fill="none" rx="3" ry="3" style="stroke: #038048; stroke-width: 1.0;"/><text fill="#000000" font-family="sans-serif" font-size="11" lengthAdjust="spacingAndGlyphs" textLength="25" x="174.5" y="437.2549">time_</text><line style="stroke: #A80036; stroke-width: 1.5;" x1="155.5" x2="322.5" y1="443.6719" y2="443.6719"/><!--class pspmt_struc--><rect fill="#FEFECE" filter="url(#f16bkl4g7boui0)" height="75.6719" id="pspmt_struc" style="stroke: #A80036; stroke-width: 1.5;" width="101" x="358.5" y="376"/><ellipse cx="373.5" cy="392" fill="#ADD1B2" rx="11" ry="11" style="stroke: #A80036; stroke-width: 1.0;"/><path d="M376.2031,397.4375 Q375.2813,398.3594 373.0156,398.3594 Q371.75,398.3594 370.8281,397.4375 Q369.1719,395.7813 369.1719,392.25 Q369.1719,388.1406 370.9531,386.3438 Q371.8906,385.4219 373.0781,385.4219 Q375.3438,385.4219 376.0781,386.1406 Q377.4688,387.5469 377.4063,389.9375 L374.9375,389.9375 Q374.875,387.8125 374.1406,387.0781 Q373.75,386.6719 373.0781,386.6719 Q373.0781,386.6719 373.0156,387.1406 Q371.6875,388.4688 371.6875,392.125 Q371.6875,395.3125 372.8281,396.4375 Q373.3594,396.9688 373.3594,396.9688 Q373.6094,396.9688 374.1406,396.4375 Q374.8125,395.7813 374.875,393.3906 L377.4688,393.3906 Q377.2656,396.375 376.2031,397.4375 Z "/><text fill="#000000" font-family="sans-serif" font-size="12" lengthAdjust="spacingAndGlyphs" textLength="69" x="387.5" y="396.9102">pspmt_struc</text><line style="stroke: #A80036; stroke-width: 1.5;" x1="359.5" x2="458.5" y1="408" y2="408"/><ellipse cx="369.5" cy="419" fill="none" rx="3" ry="3" style="stroke: #038048; stroke-width: 1.0;"/><text fill="#000000" font-family="sans-serif" font-size="11" lengthAdjust="spacingAndGlyphs" textLength="36" x="378.5" y="423.4189">pos_x_</text><ellipse cx="369.5" cy="432.8359" fill="none" rx="3" ry="3" style="stroke: #038048; stroke-width: 1.0;"/><text fill="#000000" font-family="sans-serif" font-size="11" lengthAdjust="spacingAndGlyphs" textLength="36" x="378.5" y="437.2549">pos_y_</text><line style="stroke: #A80036; stroke-width: 1.5;" x1="359.5" x2="458.5" y1="443.6719" y2="443.6719"/><!--class PspmtData--><rect fill="#FEFECE" filter="url(#f16bkl4g7boui0)" height="255.5391" id="PspmtData" style="stroke: #A80036; stroke-width: 1.5;" width="217" x="215.5" y="60"/><ellipse cx="288.75" cy="76" fill="#ADD1B2" rx="11" ry="11" style="stroke: #A80036; stroke-width: 1.0;"/><path d="M291.4531,81.4375 Q290.5313,82.3594 288.2656,82.3594 Q287,82.3594 286.0781,81.4375 Q284.4219,79.7813 284.4219,76.25 Q284.4219,72.1406 286.2031,70.3438 Q287.1406,69.4219 288.3281,69.4219 Q290.5938,69.4219 291.3281,70.1406 Q292.7188,71.5469 292.6563,73.9375 L290.1875,73.9375 Q290.125,71.8125 289.3906,71.0781 Q289,70.6719 288.3281,70.6719 Q288.3281,70.6719 288.2656,71.1406 Q286.9375,72.4688 286.9375,76.125 Q286.9375,79.3125 288.0781,80.4375 Q288.6094,80.9688 288.6094,80.9688 Q288.8594,80.9688 289.3906,80.4375 Q290.0625,79.7813 290.125,77.3906 L292.7188,77.3906 Q292.5156,80.375 291.4531,81.4375 Z "/><text fill="#000000" font-family="sans-serif" font-size="12" lengthAdjust="spacingAndGlyphs" textLength="62" x="309.25" y="80.9102">PspmtData</text><line style="stroke: #A80036; stroke-width: 1.5;" x1="216.5" x2="431.5" y1="92" y2="92"/><ellipse cx="226.5" cy="103" fill="none" rx="3" ry="3" style="stroke: #038048; stroke-width: 1.0;"/><text fill="#000000" font-family="sans-serif" font-size="11" lengthAdjust="spacingAndGlyphs" textLength="75" x="235.5" y="107.4189">event_number_</text><ellipse cx="226.5" cy="116.8359" fill="none" rx="3" ry="3" style="stroke: #038048; stroke-width: 1.0;"/><text fill="#000000" font-family="sans-serif" font-size="11" lengthAdjust="spacingAndGlyphs" textLength="52" x="235.5" y="121.2549">file_name_</text><ellipse cx="226.5" cy="130.6719" fill="none" rx="3" ry="3" style="stroke: #038048; stroke-width: 1.0;"/><text fill="#000000" font-family="sans-serif" font-size="11" lengthAdjust="spacingAndGlyphs" textLength="86" x="235.5" y="135.0908">external_ts_high_</text><ellipse cx="226.5" cy="144.5078" fill="none" rx="3" ry="3" style="stroke: #038048; stroke-width: 1.0;"/><text fill="#000000" font-family="sans-serif" font-size="11" lengthAdjust="spacingAndGlyphs" textLength="84" x="235.5" y="148.9268">external_ts_low_</text><ellipse cx="226.5" cy="158.3438" fill="none" rx="3" ry="3" style="stroke: #038048; stroke-width: 1.0;"/><text fill="#000000" font-family="sans-serif" font-size="11" lengthAdjust="spacingAndGlyphs" textLength="169" x="235.5" y="162.7627">beamline_detector_struc desi_top_</text><ellipse cx="226.5" cy="172.1797" fill="none" rx="3" ry="3" style="stroke: #038048; stroke-width: 1.0;"/><text fill="#000000" font-family="sans-serif" font-size="11" lengthAdjust="spacingAndGlyphs" textLength="186" x="235.5" y="176.5986">beamline_detector_struc desi_bottom_</text><ellipse cx="226.5" cy="186.0156" fill="none" rx="3" ry="3" style="stroke: #038048; stroke-width: 1.0;"/><text fill="#000000" font-family="sans-serif" font-size="11" lengthAdjust="spacingAndGlyphs" textLength="174" x="235.5" y="190.4346">beamline_detector_struc veto_first_</text><ellipse cx="226.5" cy="199.8516" fill="none" rx="3" ry="3" style="stroke: #038048; stroke-width: 1.0;"/><text fill="#000000" font-family="sans-serif" font-size="11" lengthAdjust="spacingAndGlyphs" textLength="191" x="235.5" y="204.2705">beamline_detector_struc veto_second_</text><ellipse cx="226.5" cy="213.6875" fill="none" rx="3" ry="3" style="stroke: #038048; stroke-width: 1.0;"/><text fill="#000000" font-family="sans-serif" font-size="11" lengthAdjust="spacingAndGlyphs" textLength="175" x="235.5" y="218.1064">beamline_detector_struc ion_white_</text><ellipse cx="226.5" cy="227.5234" fill="none" rx="3" ry="3" style="stroke: #038048; stroke-width: 1.0;"/><text fill="#000000" font-family="sans-serif" font-size="11" lengthAdjust="spacingAndGlyphs" textLength="176" x="235.5" y="231.9424">beamline_detector_struc ion_green_</text><ellipse cx="226.5" cy="241.3594" fill="none" rx="3" ry="3" style="stroke: #038048; stroke-width: 1.0;"/><text fill="#000000" font-family="sans-serif" font-size="11" lengthAdjust="spacingAndGlyphs" textLength="168" x="235.5" y="245.7783">beamline_detector_struc ion_blue_</text><ellipse cx="226.5" cy="255.1953" fill="none" rx="3" ry="3" style="stroke: #038048; stroke-width: 1.0;"/><text fill="#000000" font-family="sans-serif" font-size="11" lengthAdjust="spacingAndGlyphs" textLength="173" x="235.5" y="259.6143">beamline_detector_struc ion_black_</text><ellipse cx="226.5" cy="269.0313" fill="none" rx="3" ry="3" style="stroke: #038048; stroke-width: 1.0;"/><text fill="#000000" font-family="sans-serif" font-size="11" lengthAdjust="spacingAndGlyphs" textLength="115" x="235.5" y="273.4502">pspmt_struc high_gain_</text><ellipse cx="226.5" cy="282.8672" fill="none" rx="3" ry="3" style="stroke: #038048; stroke-width: 1.0;"/><text fill="#000000" font-family="sans-serif" font-size="11" lengthAdjust="spacingAndGlyphs" textLength="113" x="235.5" y="287.2861">pspmt_struc low_gain_</text><line style="stroke: #A80036; stroke-width: 1.5;" x1="216.5" x2="431.5" y1="293.7031" y2="293.7031"/><ellipse cx="226.5" cy="304.7031" fill="#84BE84" rx="3" ry="3" style="stroke: #038048; stroke-width: 1.0;"/><text fill="#000000" font-family="sans-serif" font-size="11" lengthAdjust="spacingAndGlyphs" textLength="33" x="235.5" y="309.1221">Clear()</text><!--class PixTreeEvent--><rect fill="#FEFECE" filter="url(#f16bkl4g7boui0)" height="48" id="PixTreeEvent" style="stroke: #A80036; stroke-width: 1.5;" width="103" x="631.5" y="164"/><ellipse cx="646.5" cy="180" fill="#ADD1B2" rx="11" ry="11" style="stroke: #A80036; stroke-width: 1.0;"/><path d="M649.2031,185.4375 Q648.2813,186.3594 646.0156,186.3594 Q644.75,186.3594 643.8281,185.4375 Q642.1719,183.7813 642.1719,180.25 Q642.1719,176.1406 643.9531,174.3438 Q644.8906,173.4219 646.0781,173.4219 Q648.3438,173.4219 649.0781,174.1406 Q650.4688,175.5469 650.4063,177.9375 L647.9375,177.9375 Q647.875,175.8125 647.1406,175.0781 Q646.75,174.6719 646.0781,174.6719 Q646.0781,174.6719 646.0156,175.1406 Q644.6875,176.4688 644.6875,180.125 Q644.6875,183.3125 645.8281,184.4375 Q646.3594,184.9688 646.3594,184.9688 Q646.6094,184.9688 647.1406,184.4375 Q647.8125,183.7813 647.875,181.3906 L650.4688,181.3906 Q650.2656,184.375 649.2031,185.4375 Z "/><text fill="#000000" font-family="sans-serif" font-size="12" lengthAdjust="spacingAndGlyphs" textLength="71" x="660.5" y="184.9102">PixTreeEvent</text><line style="stroke: #A80036; stroke-width: 1.5;" x1="632.5" x2="733.5" y1="196" y2="196"/><line style="stroke: #A80036; stroke-width: 1.5;" x1="632.5" x2="733.5" y1="204" y2="204"/><path d="M770,175 L770,184 L734.531,188 L770,192 L770,201.3516 A0,0 0 0 0 770,201.3516 L984,201.3516 A0,0 0 0 0 984,201.3516 L984,185 L974,175 L770,175 A0,0 0 0 0 770,175 " fill="#FBFB77" filter="url(#f16bkl4g7boui0)" style="stroke: #A80036; stroke-width: 1.0;"/><path d="M974,175 L974,185 L984,185 L974,175 " fill="#FBFB77" style="stroke: #A80036; stroke-width: 1.0;"/><text fill="#000000" font-family="sans-serif" font-size="13" lengthAdjust="spacingAndGlyphs" textLength="193" x="776" y="193.4951">imported from PaassRootStruct.h</text><!--class OutputTreeData--><rect fill="#FEFECE" filter="url(#f16bkl4g7boui0)" height="89.5078" id="OutputTreeData" style="stroke: #A80036; stroke-width: 1.5;" width="142" x="38" y="143"/><ellipse cx="53" cy="159" fill="#ADD1B2" rx="11" ry="11" style="stroke: #A80036; stroke-width: 1.0;"/><path d="M55.7031,164.4375 Q54.7813,165.3594 52.5156,165.3594 Q51.25,165.3594 50.3281,164.4375 Q48.6719,162.7813 48.6719,159.25 Q48.6719,155.1406 50.4531,153.3438 Q51.3906,152.4219 52.5781,152.4219 Q54.8438,152.4219 55.5781,153.1406 Q56.9688,154.5469 56.9063,156.9375 L54.4375,156.9375 Q54.375,154.8125 53.6406,154.0781 Q53.25,153.6719 52.5781,153.6719 Q52.5781,153.6719 52.5156,154.1406 Q51.1875,155.4688 51.1875,159.125 Q51.1875,162.3125 52.3281,163.4375 Q52.8594,163.9688 52.8594,163.9688 Q53.1094,163.9688 53.6406,163.4375 Q54.3125,162.7813 54.375,160.3906 L56.9688,160.3906 Q56.7656,163.375 55.7031,164.4375 Z "/><text fill="#000000" font-family="sans-serif" font-size="12" lengthAdjust="spacingAndGlyphs" textLength="87" x="67" y="163.9102">OutputTreeData</text><rect fill="#FFFFFF" height="17.0938" style="stroke: #000000; stroke-width: 1.0; stroke-dasharray: 2.0,2.0;" width="21" x="162" y="140"/><text fill="#000000" font-family="sans-serif" font-size="12" font-style="italic" lengthAdjust="spacingAndGlyphs" textLength="19" x="163" y="153.457">T,U</text><line style="stroke: #A80036; stroke-width: 1.5;" x1="39" x2="179" y1="175" y2="175"/><ellipse cx="49" cy="186" fill="none" rx="3" ry="3" style="stroke: #038048; stroke-width: 1.0;"/><text fill="#000000" font-family="sans-serif" font-size="11" lengthAdjust="spacingAndGlyphs" textLength="6" x="58" y="190.4189">T</text><ellipse cx="49" cy="199.8359" fill="none" rx="3" ry="3" style="stroke: #038048; stroke-width: 1.0;"/><text fill="#000000" font-family="sans-serif" font-size="11" lengthAdjust="spacingAndGlyphs" textLength="52" x="58" y="204.2549">std::vector</text><text fill="#000000" font-family="sans-serif" font-size="11" lengthAdjust="spacingAndGlyphs" text-decoration="underline" textLength="60" x="113" y="204.2549">output_vec_</text><line style="stroke: #A80036; stroke-width: 1.5;" x1="39" x2="179" y1="210.6719" y2="210.6719"/><ellipse cx="49" cy="221.6719" fill="#84BE84" rx="3" ry="3" style="stroke: #038048; stroke-width: 1.0;"/><text fill="#000000" font-family="sans-serif" font-size="11" lengthAdjust="spacingAndGlyphs" textLength="33" x="58" y="226.0908">Clear()</text><!--reverse link PspmtData to beamline_detector_struc--><path d="M271.001,328.669 C264.498,345.805 258.345,362.019 253.205,375.567 " fill="none" id="PspmtData&lt;-beamline_detector_struc" style="stroke: #A80036; stroke-width: 1.0;"/><polygon fill="#A80036" points="275.788,316.053,269.9193,320.2433,271.53,327.2722,277.3987,323.0819,275.788,316.053" style="stroke: #A80036; stroke-width: 1.0;"/><text fill="#000000" font-family="sans-serif" font-size="13" lengthAdjust="spacingAndGlyphs" textLength="7" x="265.96" y="337.0107">1</text><text fill="#000000" font-family="sans-serif" font-size="13" lengthAdjust="spacingAndGlyphs" textLength="7" x="248.0449" y="365.1399">8</text><!--reverse link PspmtData to pspmt_struc--><path d="M376.999,328.669 C383.502,345.805 389.655,362.019 394.795,375.567 " fill="none" id="PspmtData&lt;-pspmt_struc" style="stroke: #A80036; stroke-width: 1.0;"/><polygon fill="#A80036" points="372.212,316.053,370.6013,323.0819,376.47,327.2722,378.0807,320.2433,372.212,316.053" style="stroke: #A80036; stroke-width: 1.0;"/><text fill="#000000" font-family="sans-serif" font-size="13" lengthAdjust="spacingAndGlyphs" textLength="7" x="367.6572" y="337.0107">1</text><text fill="#000000" font-family="sans-serif" font-size="13" lengthAdjust="spacingAndGlyphs" textLength="7" x="384.752" y="365.1399">2</text><!--
@startuml
package "container classes" #DDDDDD {
    class BigRIPSTreeData {
        + ts
        + sts
        + tof
        + zet
        + aoq
        + f5x
        + f11x
        + f11y
        + beta
        + EventId
        + RunId
        + Clear()
    }

    class beamline_detector_struc {
        + energy_
        + time_
    }

    class pspmt_struc {
        + pos_x_
        + pos_y_
    }

    class PspmtData {
        + event_number_
        + file_name_
        + external_ts_high_
        + external_ts_low_
        + beamline_detector_struc desi_top_
        + beamline_detector_struc desi_bottom_
        + beamline_detector_struc veto_first_
        + beamline_detector_struc veto_second_
        + beamline_detector_struc ion_white_
        + beamline_detector_struc ion_green_
        + beamline_detector_struc ion_blue_
        + beamline_detector_struc ion_black_
        + pspmt_struc high_gain_
        + pspmt_struc low_gain_
        + Clear()
    }

    class PixTreeEvent {
    }
    note right of PixTreeEvent
        imported from PaassRootStruct.h
    end note
    
    class OutputTreeData<T,U> {
        + T
        + std::vector<U> output_vec_
        + Clear()
    }

    PspmtData "1" *- - "8" beamline_detector_struc
    PspmtData "1" *- - "2" pspmt_struc


}
@enduml

PlantUML version 1.2019.09(Mon Aug 26 12:19:51 EDT 2019)
(GPL source distribution)
Java Runtime: Java(TM) SE Runtime Environment
JVM: Java HotSpot(TM) Client VM
Java Version: 1.8.0_241-b07
Operating System: Windows 10
OS Version: 10.0
Default Encoding: MS932
Language: ja
Country: JP
--></g></svg>